<?xml version="1.0" encoding="utf-8"?>
<!-- Generator: Adobe Illustrator 15.0.0, SVG Export Plug-In . SVG Version: 6.00 Build 0)  -->
<!DOCTYPE svg PUBLIC "-//W3C//DTD SVG 1.1//EN" "http://www.w3.org/Graphics/SVG/1.1/DTD/svg11.dtd">
<svg version="1.1" id="Capa_1" xmlns="http://www.w3.org/2000/svg" xmlns:xlink="http://www.w3.org/1999/xlink" x="0px" y="0px"
	 width="97.395px" height="97.395px" viewBox="0 0 97.395 97.395" enable-background="new 0 0 97.395 97.395" xml:space="preserve">
<g>
	<path fill="#7D7D7D" d="M12.501,0h72.393c6.875,0,12.5,5.09,12.5,12.5v72.395c0,7.41-5.625,12.5-12.5,12.5H12.501
		C5.624,97.395,0,92.305,0,84.895V12.5C0,5.09,5.624,0,12.501,0L12.501,0z M70.948,10.821c-2.412,0-4.384,1.973-4.384,4.386v10.495
		c0,2.411,1.972,4.385,4.384,4.385h11.008c2.412,0,4.385-1.974,4.385-4.385V15.206c0-2.413-1.973-4.386-4.385-4.386H70.948
		L70.948,10.821z M86.387,41.188h-8.572c0.812,2.648,1.25,5.453,1.25,8.355c0,16.2-13.556,29.332-30.274,29.332
		c-16.718,0-30.272-13.132-30.272-29.332c0-2.904,0.438-5.708,1.25-8.355h-8.944v41.142c0,2.129,1.741,3.872,3.871,3.872h67.822
		c2.13,0,3.872-1.742,3.872-3.872V41.188H86.387z M48.789,29.533c-10.803,0-19.561,8.484-19.561,18.952
		c0,10.469,8.758,18.953,19.561,18.953s19.562-8.484,19.562-18.953C68.351,38.018,59.593,29.533,48.789,29.533z"/>
</g>
</svg>
