<?xml version="1.0" encoding="utf-8"?>
<!-- Generator: Adobe Illustrator 15.0.0, SVG Export Plug-In . SVG Version: 6.00 Build 0)  -->
<!DOCTYPE svg PUBLIC "-//W3C//DTD SVG 1.1//EN" "http://www.w3.org/Graphics/SVG/1.1/DTD/svg11.dtd">
<svg version="1.1" id="Capa_1" xmlns="http://www.w3.org/2000/svg" xmlns:xlink="http://www.w3.org/1999/xlink" x="0px" y="0px"
	 width="90.676px" height="90.676px" viewBox="0 0 90.676 90.676" enable-background="new 0 0 90.676 90.676" xml:space="preserve">
<g>
	<g>
		<path fill="#7D7D7D" d="M82.288,45.907c-0.938-4.071-4.268-7.074-8.275-7.521c-9.489-1.06-19.098-1.065-28.66-1.06
			c-9.566-0.005-19.173,0-28.665,1.06c-4.006,0.448-7.334,3.451-8.27,7.521C7.083,51.704,7.067,58.032,7.067,64
			s0,12.297,1.334,18.094c0.936,4.07,4.264,7.072,8.272,7.521c9.49,1.061,19.097,1.064,28.662,1.061
			c9.566,0.005,19.171,0,28.664-1.061c4.006-0.449,7.336-3.451,8.272-7.521c1.333-5.797,1.34-12.124,1.34-18.094
			C83.61,58.032,83.62,51.704,82.288,45.907z M28.9,50.4h-5.54v29.438h-5.146V50.4h-5.439v-4.822H28.9V50.4z M42.877,79.838h-4.629
			v-2.784c-1.839,2.108-3.585,3.136-5.286,3.136c-1.491,0-2.517-0.604-2.98-1.896c-0.252-0.772-0.408-1.994-0.408-3.797V54.311
			h4.625v18.795c0,1.084,0,1.646,0.042,1.799c0.111,0.719,0.462,1.082,1.082,1.082c0.928,0,1.898-0.715,2.924-2.166v-19.51h4.629
			L42.877,79.838L42.877,79.838z M60.45,72.176c0,2.361-0.158,4.062-0.468,5.145c-0.618,1.898-1.854,2.869-3.694,2.869
			c-1.646,0-3.234-0.914-4.781-2.824v2.475h-4.625V45.578h4.625v11.189c1.494-1.839,3.08-2.769,4.781-2.769
			c1.84,0,3.078,0.969,3.694,2.879c0.312,1.027,0.468,2.715,0.468,5.133V72.176z M77.907,67.918h-9.25v4.524
			c0,2.363,0.772,3.543,2.362,3.543c1.14,0,1.802-0.618,2.065-1.854c0.043-0.252,0.104-1.279,0.104-3.135h4.72v0.676
			c0,1.49-0.058,2.518-0.1,2.979c-0.155,1.024-0.52,1.953-1.08,2.771c-1.281,1.854-3.18,2.769-5.596,2.769
			c-2.42,0-4.262-0.871-5.598-2.614c-0.981-1.277-1.486-3.289-1.486-6.002v-8.941c0-2.729,0.447-4.725,1.431-6.016
			C66.816,54.872,68.657,54,71.02,54c2.32,0,4.161,0.871,5.457,2.617c0.969,1.291,1.432,3.286,1.432,6.016v5.285H77.907z"/>
		<path fill="#7D7D7D" d="M70.978,58.163c-1.546,0-2.321,1.182-2.321,3.541v2.362h4.625v-2.362
			C73.282,59.344,72.508,58.163,70.978,58.163z"/>
		<path fill="#7D7D7D" d="M53.812,58.163c-0.763,0-1.534,0.36-2.308,1.125v15.56c0.772,0.774,1.545,1.14,2.308,1.14
			c1.334,0,2.013-1.14,2.013-3.445V61.646C55.825,59.344,55.146,58.163,53.812,58.163z"/>
		<path fill="#7D7D7D" d="M56.396,34.973c1.705,0,3.479-1.036,5.34-3.168v2.814h4.675V8.82h-4.675v19.718
			c-1.036,1.464-2.019,2.188-2.952,2.188c-0.627,0-0.994-0.37-1.097-1.095c-0.058-0.153-0.058-0.722-0.058-1.817V8.82H52.97v20.4
			c0,1.822,0.155,3.055,0.413,3.836C53.854,34.363,54.891,34.973,56.396,34.973z"/>
		<path fill="#7D7D7D" d="M23.851,20.598v14.021h5.184V20.598L35.271,0h-5.242l-3.537,13.595L22.812,0h-5.455
			c1.093,3.209,2.23,6.434,3.323,9.646C22.343,14.474,23.381,18.114,23.851,20.598z"/>
		<path fill="#7D7D7D" d="M42.219,34.973c2.342,0,4.163-0.881,5.454-2.641c0.98-1.291,1.451-3.325,1.451-6.067v-9.034
			c0-2.758-0.47-4.774-1.451-6.077c-1.291-1.765-3.11-2.646-5.454-2.646c-2.33,0-4.149,0.881-5.443,2.646
			c-0.993,1.303-1.463,3.319-1.463,6.077v9.034c0,2.742,0.47,4.776,1.463,6.067C38.069,34.092,39.889,34.973,42.219,34.973z
			 M39.988,16.294c0-2.387,0.724-3.577,2.231-3.577c1.507,0,2.229,1.189,2.229,3.577v10.852c0,2.387-0.722,3.581-2.229,3.581
			c-1.507,0-2.231-1.194-2.231-3.581V16.294z"/>
	</g>
</g>
</svg>
